<mxfile host="app.diagrams.net" modified="2021-01-29T14:53:59.327Z" agent="5.0 (Macintosh; Intel Mac OS X 10_15_7) AppleWebKit/605.1.15 (KHTML, like Gecko) Version/14.0.2 Safari/605.1.15" etag="MjPuaL0Jb8rdOlEN7FuD" version="14.2.8" type="github">
  <diagram id="O8v3hCRxPMC7ErA3jH7S" name="Page-1">
    <mxGraphModel dx="785" dy="539" grid="1" gridSize="10" guides="1" tooltips="1" connect="1" arrows="1" fold="1" page="1" pageScale="1" pageWidth="827" pageHeight="1169" math="0" shadow="0">
      <root>
        <mxCell id="0" />
        <mxCell id="1" parent="0" />
        <mxCell id="h1sssHrsjBUyd-V-Uysm-1" value="Can you see me?&lt;br&gt;" style="rounded=0;whiteSpace=wrap;html=1;" vertex="1" parent="1">
          <mxGeometry x="320" y="50" width="120" height="60" as="geometry" />
        </mxCell>
      </root>
    </mxGraphModel>
  </diagram>
</mxfile>
